<svg width="135" height="45" viewBox="0 0 135 45" fill="none" xmlns="http://www.w3.org/2000/svg">
    <path d="M9.35018 30.1981C11.555 28.0023 13.7598 25.8111 15.9599 23.6106C16.5845 22.9886 17.474 22.2818 16.821 21.3912C16.4283 20.854 15.4442 20.51 14.7156 20.4959C10.7128 20.4063 6.71007 20.4535 2.70732 20.4346C0.909398 20.4252 0.587664 20.1048 0.564007 18.3236C0.535619 16.2833 0.57347 14.2429 0.54035 12.2026C0.521425 10.9586 1.12231 10.4355 2.32881 10.4403C6.37887 10.4591 10.4289 10.4073 14.479 10.4779C17.4361 10.5298 19.57 12.6926 19.5936 15.6424C19.6409 21.1132 19.7024 26.5886 19.5416 32.0547C19.5037 33.2704 18.8366 34.7029 17.9944 35.617C15.2644 38.5856 12.3262 41.3705 9.45427 44.2072C8.38498 45.2627 7.82194 45.2627 6.74319 44.2166C5.27646 42.7935 3.82393 41.3469 2.39505 39.8862C1.30683 38.7741 1.3163 38.2087 2.4471 37.0778C4.73708 34.7736 7.05073 32.4882 9.35018 30.1934V30.1981Z" fill="#A52BFF"/>
    <path d="M33.7594 14.8037C31.5546 16.9995 29.3497 19.1906 27.1497 21.3912C26.5251 22.0132 25.6356 22.72 26.2885 23.6106C26.6812 24.1478 27.6654 24.4917 28.394 24.5059C32.3967 24.5954 36.3995 24.5483 40.4022 24.5671C42.2002 24.5766 42.5219 24.897 42.5456 26.6782C42.5739 28.7185 42.5361 30.7588 42.5692 32.7992C42.5881 34.0432 41.9873 34.5662 40.7808 34.5615C36.7307 34.5427 32.6806 34.5945 28.6306 34.5238C25.6735 34.472 23.5396 32.3091 23.516 29.3594C23.4686 23.8886 23.4071 18.4131 23.568 12.9471C23.6058 11.7314 24.273 10.2989 25.1152 9.38475C27.8452 6.41613 30.7833 3.63127 33.6553 0.794587C34.7246 -0.260924 35.2829 -0.265636 36.3664 0.785163C37.8331 2.20822 39.2856 3.65483 40.7145 5.11558C41.8027 6.22764 41.7933 6.79309 40.6625 7.924C38.3725 10.2282 36.0588 12.5136 33.7594 14.8084V14.8037Z" fill="#A52BFF"/>
    <path d="M52.6233 25.2363C52.6233 19.4309 57.1512 15.6283 62.3889 15.6283C67.6265 15.6283 72.1923 19.4309 72.1923 25.2363C72.1923 31.0416 67.6265 34.8819 62.3889 34.8819C57.1512 34.8819 52.6233 31.0416 52.6233 25.2363ZM67.5839 25.2363C67.5839 22.098 65.2229 19.8645 62.3889 19.8645C59.5548 19.8645 57.2317 22.098 57.2317 25.2363C57.2317 28.3745 59.5548 30.6458 62.3889 30.6458C65.2229 30.6458 67.5839 28.4499 67.5839 25.2363Z" fill="#0F005B"/>
    <path d="M75.4095 34.4107V6.14282H79.9753V34.4107H75.4095Z" fill="#0F005B"/>
    <path d="M83.4718 9.62978C83.4718 8.02295 84.8486 6.84492 86.462 6.84492C88.0754 6.84492 89.4144 8.02295 89.4144 9.62978C89.4144 11.2366 88.1133 12.4146 86.462 12.4146C84.8108 12.4146 83.4718 11.1989 83.4718 9.62978ZM84.1815 34.4107V16.0995H88.7473V34.4107H84.1815Z" fill="#0F005B"/>
    <path d="M107.025 16.0995H111.59V32.017C111.59 40.249 107.574 43.8208 101.276 43.8208C94.9786 43.8208 94.1885 41.7805 92.5751 38.4867L96.3554 36.7621C97.2591 38.5244 99.27 39.7024 101.276 39.7024C104.82 39.7024 107.025 37.7045 107.025 32.4505V32.017C105.724 33.8971 103.169 34.8772 100.921 34.8772C96.0763 34.8772 91.8654 31.0746 91.8654 25.2316C91.8654 19.3886 96.0384 15.6236 100.879 15.6236C105.719 15.6236 105.724 16.6037 107.02 18.4838V16.0901L107.025 16.0995ZM106.944 25.1986C106.944 21.9849 104.266 19.8645 101.631 19.8645C98.9955 19.8645 96.4737 22.1404 96.4737 25.1986C96.4737 28.2567 98.7968 30.6505 101.631 30.6505C104.465 30.6505 106.944 28.4169 106.944 25.1986Z" fill="#0F005B"/>
    <path d="M114.77 25.2363C114.77 19.4309 119.298 15.6283 124.535 15.6283C129.773 15.6283 134.339 19.4309 134.339 25.2363C134.339 31.0416 129.773 34.8819 124.535 34.8819C119.298 34.8819 114.77 31.0416 114.77 25.2363ZM129.726 25.2363C129.726 22.098 127.365 19.8645 124.531 19.8645C121.697 19.8645 119.374 22.098 119.374 25.2363C119.374 28.3745 121.697 30.6458 124.531 30.6458C127.365 30.6458 129.726 28.4499 129.726 25.2363Z" fill="#0F005B"/>
</svg>
